# xmcd
#
# Track frame offsets: 
#        150
#        15023
#        40559
#        59453
#        75486
#        93884
#        109201
#        122510
#        137685
#        156421
#        178742
#        194141
#
# Disc length: 2820 seconds
#
# Revision: 0
# Processed by: cddbd v1.5.2PL0 Copyright (c) Steve Scherf et al.
# Submitted via: ExactAudioCopyFreeDBPlugin 1.0
#
DISCID=930b020c
DTITLE=Bjørn Berge - Mad Fingers Ball
DYEAR=2013
DGENRE=Blues
TTITLE0=Honey White
TTITLE1=I Can't Quit You Baby
TTITLE2=Mad Fingers Ball
TTITLE3=Hush
TTITLE4=StaMIna
TTITLE5=Guts
TTITLE6=Guitare Bizarre
TTITLE7=Chevrolet
TTITLE8=Heavy Mental
TTITLE9=Meanest Blues In Town
TTITLE10=Ramblin' On My Mind
TTITLE11=The Last Call
EXTD=
EXTT0=
EXTT1=
EXTT2=
EXTT3=
EXTT4=
EXTT5=
EXTT6=
EXTT7=
EXTT8=
EXTT9=
EXTT10=
EXTT11=
PLAYORDER=
